<?xml version="1.0" encoding="utf-8"?>
<svg version="1.1" xmlns:xlink="http://www.w3.org/1999/xlink" width="14px" height="14px" xmlns="http://www.w3.org/2000/svg">
  <g transform="matrix(1 0 0 1 -763 -113 )">
    <path d="M 770 113  C 773.92 113  777 116.08  777 120  C 777 123.92  773.92 127  770 127  C 766.08 127  763 123.92  763 120  C 763 116.08  766.08 113  770 113  Z " fill-rule="nonzero" fill="#ffffff" stroke="none" />
    <path d="M 770 113.5  C 773.64 113.5  776.5 116.36  776.5 120  C 776.5 123.64  773.64 126.5  770 126.5  C 766.36 126.5  763.5 123.64  763.5 120  C 763.5 116.36  766.36 113.5  770 113.5  Z " stroke-width="1" stroke="#dcdfe6" fill="none" />
  </g>
</svg>