<?xml version="1.0" encoding="utf-8"?>
<svg version="1.1" xmlns:xlink="http://www.w3.org/1999/xlink" width="62px" height="32px" xmlns="http://www.w3.org/2000/svg">
  <g transform="matrix(1 0 0 1 -740 -330 )">
    <path d="M 741 334  A 3 3 0 0 1 744 331 L 798 331  A 3 3 0 0 1 801 334 L 801 358  A 3 3 0 0 1 798 361 L 744 361  A 3 3 0 0 1 741 358 L 741 334  Z " fill-rule="nonzero" fill="#67c23a" stroke="none" fill-opacity="0.0980392156862745" />
    <path d="M 740.5 334  A 3.5 3.5 0 0 1 744 330.5 L 798 330.5  A 3.5 3.5 0 0 1 801.5 334 L 801.5 358  A 3.5 3.5 0 0 1 798 361.5 L 744 361.5  A 3.5 3.5 0 0 1 740.5 358 L 740.5 334  Z " stroke-width="1" stroke="#67c23a" fill="none" stroke-opacity="0.2" />
  </g>
</svg>