<?xml version="1.0" encoding="utf-8"?>
<svg version="1.1" xmlns:xlink="http://www.w3.org/1999/xlink" width="76px" height="32px" xmlns="http://www.w3.org/2000/svg">
  <g transform="matrix(1 0 0 1 -913 -742 )">
    <path d="M 913.5 746  A 3.5 3.5 0 0 1 917 742.5 L 985 742.5  A 3.5 3.5 0 0 1 988.5 746 L 988.5 770  A 3.5 3.5 0 0 1 985 773.5 L 917 773.5  A 3.5 3.5 0 0 1 913.5 770 L 913.5 746  Z " fill-rule="nonzero" fill="#0099ff" stroke="none" fill-opacity="0.0980392156862745" />
    <path d="M 913.5 746  A 3.5 3.5 0 0 1 917 742.5 L 985 742.5  A 3.5 3.5 0 0 1 988.5 746 L 988.5 770  A 3.5 3.5 0 0 1 985 773.5 L 917 773.5  A 3.5 3.5 0 0 1 913.5 770 L 913.5 746  Z " stroke-width="1" stroke="#a7d2f9" fill="none" />
  </g>
</svg>