<?xml version="1.0" encoding="utf-8"?>
<svg version="1.1" xmlns:xlink="http://www.w3.org/1999/xlink" width="62px" height="32px" xmlns="http://www.w3.org/2000/svg">
  <g transform="matrix(1 0 0 1 -959 -330 )">
    <path d="M 960 334  A 3 3 0 0 1 963 331 L 1017 331  A 3 3 0 0 1 1020 334 L 1020 358  A 3 3 0 0 1 1017 361 L 963 361  A 3 3 0 0 1 960 358 L 960 334  Z " fill-rule="nonzero" fill="#f56c6c" stroke="none" fill-opacity="0.0980392156862745" />
    <path d="M 959.5 334  A 3.5 3.5 0 0 1 963 330.5 L 1017 330.5  A 3.5 3.5 0 0 1 1020.5 334 L 1020.5 358  A 3.5 3.5 0 0 1 1017 361.5 L 963 361.5  A 3.5 3.5 0 0 1 959.5 358 L 959.5 334  Z " stroke-width="1" stroke="#f56c6c" fill="none" stroke-opacity="0.2" />
  </g>
</svg>