<?xml version="1.0" encoding="utf-8"?>
<svg version="1.1" xmlns:xlink="http://www.w3.org/1999/xlink" width="62px" height="32px" xmlns="http://www.w3.org/2000/svg">
  <g transform="matrix(1 0 0 1 -813 -330 )">
    <path d="M 814 334  A 3 3 0 0 1 817 331 L 871 331  A 3 3 0 0 1 874 334 L 874 358  A 3 3 0 0 1 871 361 L 817 361  A 3 3 0 0 1 814 358 L 814 334  Z " fill-rule="nonzero" fill="#e6a23c" stroke="none" fill-opacity="0.0980392156862745" />
    <path d="M 813.5 334  A 3.5 3.5 0 0 1 817 330.5 L 871 330.5  A 3.5 3.5 0 0 1 874.5 334 L 874.5 358  A 3.5 3.5 0 0 1 871 361.5 L 817 361.5  A 3.5 3.5 0 0 1 813.5 358 L 813.5 334  Z " stroke-width="1" stroke="#e6a23c" fill="none" stroke-opacity="0.2" />
  </g>
</svg>