<?xml version="1.0" encoding="utf-8"?>
<svg version="1.1" xmlns:xlink="http://www.w3.org/1999/xlink" width="62px" height="32px" xmlns="http://www.w3.org/2000/svg">
  <g transform="matrix(1 0 0 1 -886 -330 )">
    <path d="M 887 334  A 3 3 0 0 1 890 331 L 944 331  A 3 3 0 0 1 947 334 L 947 358  A 3 3 0 0 1 944 361 L 890 361  A 3 3 0 0 1 887 358 L 887 334  Z " fill-rule="nonzero" fill="#909399" stroke="none" fill-opacity="0.0980392156862745" />
    <path d="M 886.5 334  A 3.5 3.5 0 0 1 890 330.5 L 944 330.5  A 3.5 3.5 0 0 1 947.5 334 L 947.5 358  A 3.5 3.5 0 0 1 944 361.5 L 890 361.5  A 3.5 3.5 0 0 1 886.5 358 L 886.5 334  Z " stroke-width="1" stroke="#909399" fill="none" stroke-opacity="0.2" />
  </g>
</svg>