<?xml version="1.0" encoding="utf-8"?>
<svg version="1.1" xmlns:xlink="http://www.w3.org/1999/xlink" width="62px" height="32px" xmlns="http://www.w3.org/2000/svg">
  <g transform="matrix(1 0 0 1 -740 -330 )">
    <path d="M 740.5 334  A 3.5 3.5 0 0 1 744 330.5 L 798 330.5  A 3.5 3.5 0 0 1 801.5 334 L 801.5 358  A 3.5 3.5 0 0 1 798 361.5 L 744 361.5  A 3.5 3.5 0 0 1 740.5 358 L 740.5 334  Z " fill-rule="nonzero" fill="#0099ff" stroke="none" fill-opacity="0.0980392156862745" />
    <path d="M 740.5 334  A 3.5 3.5 0 0 1 744 330.5 L 798 330.5  A 3.5 3.5 0 0 1 801.5 334 L 801.5 358  A 3.5 3.5 0 0 1 798 361.5 L 744 361.5  A 3.5 3.5 0 0 1 740.5 358 L 740.5 334  Z " stroke-width="1" stroke="#a7d2f9" fill="none" />
  </g>
</svg>