<?xml version="1.0" encoding="utf-8"?>
<svg version="1.1" xmlns:xlink="http://www.w3.org/1999/xlink" width="20px" height="12px" xmlns="http://www.w3.org/2000/svg">
  <g transform="matrix(1 0 0 1 -934 -3352 )">
    <path d="M 19.7995991983969 1.23711340206182  C 19.933199732799 1.37457044673519  20 1.53264604811003  20 1.71134020618537  C 20 1.89003436426119  19.933199732799 2.04810996563555  19.7995991983969 2.1855670103094  L 10.4609218436874 11.7938144329897  C 10.3273213092853 11.9312714776631  10.1736806947229 12  10 12  C 9.82631930527714 12  9.67267869071475 11.9312714776631  9.5390781563126 11.7938144329897  L 0.200400801603109 2.1855670103094  C 0.0668002672009607 2.04810996563555  0 1.89003436426119  0 1.71134020618537  C 0 1.53264604811003  0.0668002672009607 1.37457044673519  0.200400801603109 1.23711340206182  L 1.20240480961934 0.206185567010303  C 1.33600534402126 0.0687285223369241  1.48964595858388 0  1.66332665330651 0  C 1.83700734802937 0  1.99064796259177 0.0687285223369241  2.12424849699391 0.206185567010303  L 10 8.30927835051553  L 17.8757515030061 0.206185567010303  C 18.0093520374082 0.0687285223369241  18.1629926519706 0  18.3366733466935 0  C 18.5103540414161 0  18.6639946559787 0.0687285223369241  18.7975951903807 0.206185567010303  L 19.7995991983969 1.23711340206182  Z " fill-rule="nonzero" fill="#dcdfe6" stroke="none" transform="matrix(1 0 0 1 934 3352 )" />
  </g>
</svg>