<?xml version="1.0" encoding="utf-8"?>
<svg version="1.1" xmlns:xlink="http://www.w3.org/1999/xlink" width="15px" height="9px" xmlns="http://www.w3.org/2000/svg">
  <g transform="matrix(1 0 0 1 -1212 -3897 )">
    <path d="M 14.3597194388778 1.33711340206185  C 14.4532398129593 1.43012600229093  14.5 1.5370904925544  14.5 1.65800687285224  C 14.5 1.77892325315008  14.4532398129593 1.88588774341349  14.3597194388778 1.97890034364264  L 7.82264529058116 8.4804810996564  C 7.72912491649967 8.57349369988549  7.62157648630594 8.62  7.5 8.62  C 7.37842351369406 8.62  7.27087508350033 8.57349369988549  7.17735470941884 8.4804810996564  L 0.640280561122239 1.97890034364264  C 0.546760187040746 1.88588774341349  0.5 1.77892325315008  0.5 1.65800687285224  C 0.5 1.5370904925544  0.546760187040746 1.43012600229093  0.640280561122239 1.33711340206185  L 1.34168336673346 0.63951890034366  C 1.43520374081496 0.546506300114572  1.54275217100869 0.5  1.66432865731463 0.5  C 1.78590514362057 0.5  1.8934535738143 0.546506300114572  1.98697394789579 0.63951890034366  L 7.5 6.12261168384879  L 13.0130260521042 0.63951890034366  C 13.1065464261857 0.546506300114572  13.2140948563794 0.5  13.3356713426854 0.5  C 13.4572478289913 0.5  13.564796259185 0.546506300114572  13.6583166332665 0.63951890034366  L 14.3597194388778 1.33711340206185  Z " fill-rule="nonzero" fill="#dcdfe6" stroke="none" transform="matrix(1 0 0 1 1212 3897 )" />
  </g>
</svg>