<?xml version="1.0" encoding="utf-8"?>
<svg version="1.1" xmlns:xlink="http://www.w3.org/1999/xlink" width="20px" height="20px" xmlns="http://www.w3.org/2000/svg">
  <g transform="matrix(1 0 0 1 -907 -274 )">
    <path d="M 917 275  C 922.04 275  926 278.96  926 284  C 926 289.04  922.04 293  917 293  C 911.96 293  908 289.04  908 284  C 908 278.96  911.96 275  917 275  Z " fill-rule="nonzero" fill="#ffffff" stroke="none" />
    <path d="M 917 275  C 922.04 275  926 278.96  926 284  C 926 289.04  922.04 293  917 293  C 911.96 293  908 289.04  908 284  C 908 278.96  911.96 275  917 275  Z " stroke-width="2" stroke="#409eff" fill="none" />
  </g>
</svg>